# xmcd CD database file
#
# Track frame offsets:
#	150
#	10578
#	44192
#	71329
#	94702
#	111966
#	135189
#	161266
#	179238
#	196994
#	217100
#
# Disc length: 3145 seconds
#
# Revision: 0
# Processed by: cddbd v1.5.2PL0 Copyright (c) Steve Scherf et al.
# Submitted via: CDex 1.51
#
DISCID=980c470b
DTITLE=Matthew Read Trio - Anecdotes Vol 2
DYEAR=2017
DGENRE=Jazz
TTITLE0=Snow (Part 1)
TTITLE1=Many Roads Travelled
TTITLE2=Surprise Flight
TTITLE3=Burford Brown
TTITLE4=When She Leaves
TTITLE5=In Motian
TTITLE6=K.
TTITLE7=Revolutions
TTITLE8=They Know, You Know
TTITLE9=Burke and Hare
TTITLE10=Matthew Read Trio - Snow (Parts 1&2)
EXTD=YEAR: 2017
EXTT0=
EXTT1=
EXTT2=
EXTT3=
EXTT4=
EXTT5=
EXTT6=
EXTT7=
EXTT8=
EXTT9=
EXTT10=
PLAYORDER=
